<?xml version="1.0" encoding="UTF-8" standalone="no"?>
<svg width="1200" height="1200" viewBox="0 0 1200 1200" xmlns="http://www.w3.org/2000/svg">
  <!-- Background with gradient -->
  <defs>
    <linearGradient id="bg-gradient" x1="0%" y1="0%" x2="100%" y2="100%">
      <stop offset="0%" stop-color="#e6f7ff" />
      <stop offset="100%" stop-color="#ffffff" />
    </linearGradient>
  </defs>
  
  <!-- Main background -->
  <rect width="1200" height="1200" fill="url(#bg-gradient)" rx="12" ry="12" />
  
  <!-- Version badge -->
  <g transform="translate(1020, 80)">
    <rect x="-80" y="-30" width="160" height="60" rx="30" ry="30" fill="#3D7E9A" />
    <text x="0" y="10" font-family="Arial, sans-serif" font-size="28" font-weight="bold" fill="white" text-anchor="middle">v2.1.0</text>
  </g>
  
  <!-- Logo -->
  <g transform="translate(600, 400)">
    <text x="0" y="0" font-family="Arial, sans-serif" font-size="120" font-weight="bold" text-anchor="middle">
      <tspan x="0" y="0" fill="#000000">Serverless</tspan>
      <tspan x="-120" y="120" fill="#3D7E9A">My</tspan><tspan dx="25" x="60" y="120" fill="#F39C12">SQL</tspan>
    </text>
  </g>
  
  <!-- Tagline -->
  <text x="600" y="580" font-family="Arial, sans-serif" font-size="36" fill="#555555" text-anchor="middle">
    Connection Management at Serverless Scale
  </text>
  
  <!-- What's New Title -->
  <g transform="translate(600, 680)">
    <rect x="-320" y="-50" width="640" height="70" rx="10" ry="10" fill="rgba(61, 126, 154, 0.1)" />
    <text x="0" y="0" font-family="Arial, sans-serif" font-size="42" font-weight="bold" fill="#3D7E9A" text-anchor="middle">
      ✨ What's New
    </text>
  </g>
  
  <!-- Features as bullet points -->
  <g transform="translate(300, 750)">
    <g>
      <text x="0" y="0" font-family="Arial, sans-serif" font-size="28" font-weight="bold" fill="#333333">
        <tspan x="0" y="0">• Query Retries with Backoff Strategies</tspan>
        <tspan x="0" y="60">• SQL Logging with Parameter Substitution</tspan>
        <tspan x="0" y="120">• User Switching for Different Permissions</tspan>
        <tspan x="0" y="180">• Comprehensive Integration Tests</tspan>
      </text>
    </g>
  </g>
  
  <!-- Announcement banner -->
  <g transform="translate(600, 1100)">
    <rect x="-180" y="-40" width="360" height="80" rx="40" ry="40" fill="rgba(243, 156, 18, 0.9)" />
    <text x="0" y="12" font-family="Arial, sans-serif" font-size="32" font-weight="bold" fill="white" text-anchor="middle">NOW AVAILABLE!</text>
  </g>
</svg> 